<svg xmlns="http://www.w3.org/2000/svg" id="mrPVFrtJp" viewBox="0 0 320 93" height="93" width="320" style="width: 320px; height: 93px; position: absolute; top: 50%; left: 50%; z-index: 0; cursor: pointer; overflow: visible; transform: translate(-50%, -50%) scale(0.6375);"><defs id="SvgjsDefs1088"/><g id="SvgjsG1089" featurekey="symbolGroupContainer" transform="matrix(1,0,0,1,0,0)" fill="#ff2e63"><rect width="103" height="93" rx="8"/></g><g id="SvgjsG1090" featurekey="symbolFeature-0" transform="matrix(0.08974358974358974,0,0,0.08974358974358974,20.08974358974359,15.08974358974359)" fill="#eaeaea"><g xmlns="http://www.w3.org/2000/svg"><title>background</title><rect x="-1" y="-1" width="702" height="702" style="fill: none;"/></g><g xmlns="http://www.w3.org/2000/svg"><title>Layer 1</title><g><g><path d="M222,158.3c-31,0.7-57.5,21-79.5,60.8c-23.1,44.8-34.5,94.6-34.3,149.4c0.4,6.6,1.1,7.2,2.2,1.9     c9.3-40.3,19-71.8,29.1-94.6c9.9-22.9,20.9-41.7,32.9-56.2c27.6-32.1,51.5-37.3,71.8-15.6c22.2,25.6,34,68.8,35.4,129.4     c-1.2,81.5-11.9,143.1-32.1,185c-25.3,51-51.3,68-77.7,50.8c-36-28.7-56-92.3-60-190.6c-1.4-3.4-2.7-0.9-3.7,7.5     c-1.9,10.2-3.2,21.4-4,33.3c-3,53.4,4.1,98.7,21.2,135.9c17.5,35.3,40.8,53.2,69.9,53.8c31.4-0.5,60-21,85.9-61.7     c25.8-42.5,42.4-94.3,49.7-155.6c2.7-65.2-6.1-120.7-26.3-166.5c-20.4-43.6-47.1-66-80-67.2"/></g><g><path d="M452,134.1c-16.1-26.4-46.9-39.3-92.4-38.5c-50.3,2.4-99.2,17.4-146.6,45c-5.5,3.6-5.7,4.6-0.6,2.9     c39.6-12.1,71.7-19.5,96.4-22.1c24.8-2.9,46.5-2.8,65.1,0.4c41.6,7.9,58.1,26,49.4,54.4c-11.1,32-42.6,63.8-94.4,95.4     c-71.2,39.7-129.9,61.3-176.2,64.7c-56.9,3.6-84.5-10.4-82.8-41.9C77,248.8,122,199.7,205.1,147c2.2-2.9-0.6-2.7-8.3,0.6     c-9.8,3.5-20.1,7.9-30.9,13.2c-47.7,24.1-83.5,52.9-107.1,86.3c-21.8,32.8-25.7,62-11.7,87.4c16.1,26.9,48.2,41.4,96.4,43.5     c49.7,1.1,102.9-10.4,159.6-34.8c57.8-30.3,101.5-65.6,131-106c27.6-39.5,33.6-73.8,18.2-102.9"/></g><g><path d="M588,321.2c14.8-27.2,10.6-60.3-12.9-99.3c-27.3-42.4-64.7-77.2-112.3-104.4c-5.9-3-6.8-2.7-2.8,0.9     c30.3,28.2,52.7,52.4,67.4,72.4c14.9,20.1,25.7,38.9,32.2,56.6c14,40,6.5,63.3-22.4,69.9c-33.3,6.4-76.5-5-129.8-34     c-69.9-41.8-118-81.9-144.2-120.2c-31.5-47.5-33.2-78.4-5.1-92.7c42.9-16.8,107.9-2.3,195.1,43.4c3.6,0.4,2.1-1.9-4.7-6.9     c-7.9-6.8-16.9-13.5-26.9-20.2c-44.7-29.3-87.5-45.8-128.3-49.6c-39.3-2.5-66.5,8.7-81.6,33.6c-15.3,27.4-11.8,62.5,10.5,105.2     c23.9,43.6,60.5,83.9,109.9,120.8c55.1,34.9,107.6,55.1,157.3,60.4c48,4.1,80.8-7.8,98.2-35.7"/></g><g><path d="M494,532.5c31-0.7,57.5-21,79.5-60.8c23.1-44.8,34.5-94.6,34.3-149.4c-0.4-6.6-1.1-7.2-2.2-1.9     c-9.3,40.3-19,71.8-29.1,94.6c-9.9,22.9-20.9,41.7-32.9,56.2c-27.6,32.1-51.5,37.3-71.8,15.6c-22.2-25.6-34-68.8-35.4-129.4     c1.2-81.5,11.9-143.1,32.1-185c25.3-51,51.3-68,77.7-50.8c36,28.7,56,92.3,60,190.6c1.4,3.4,2.7,0.9,3.7-7.5     c1.9-10.2,3.2-21.4,4-33.3c3-53.4-4.1-98.7-21.2-135.9c-17.5-35.3-40.8-53.2-69.9-53.8c-31.4,0.5-60,21-85.9,61.7     c-25.8,42.5-42.4,94.3-49.7,155.6c-2.7,65.2,6.1,120.7,26.3,166.5c20.4,43.6,47.1,66,80,67.2"/></g><g><path d="M128,369.6c-14.8,27.2-10.6,60.3,12.9,99.3c27.3,42.4,64.7,77.2,112.3,104.4c5.9,3,6.8,2.7,2.8-0.9     c-30.3-28.2-52.7-52.4-67.4-72.4c-14.9-20.1-25.7-38.9-32.2-56.6c-14-40-6.5-63.3,22.4-69.9c33.3-6.4,76.5,5,129.8,34     c69.9,41.8,118,81.9,144.2,120.2c31.5,47.5,33.2,78.4,5.1,92.7c-42.9,16.8-107.9,2.3-195.1-43.4c-3.6-0.4-2.1,1.9,4.7,6.9     c7.9,6.8,16.9,13.5,26.9,20.2c44.7,29.3,87.5,45.8,128.3,49.6c39.3,2.5,66.5-8.7,81.6-33.6c15.3-27.4,11.8-62.5-10.5-105.2     c-23.9-43.6-60.5-83.9-109.9-120.8c-55.1-34.9-107.6-55.1-157.3-60.4c-48-4.1-80.8,7.8-98.2,35.7"/></g><g><path d="M264,556.7c16.1,26.4,46.9,39.3,92.4,38.5c50.3-2.4,99.2-17.4,146.6-45c5.5-3.6,5.7-4.6,0.6-2.9     c-39.6,12.1-71.7,19.5-96.4,22.1c-24.8,2.9-46.5,2.8-65.1-0.4c-41.6-7.9-58.1-26-49.4-54.4c11.1-32,42.6-63.8,94.4-95.4     c71.2-39.7,129.9-61.3,176.2-64.7c56.9-3.6,84.5,10.4,82.8,41.9c-6.9,45.5-51.9,94.6-135.1,147.3c-2.2,2.9,0.6,2.7,8.3-0.6     c9.8-3.5,20.1-7.9,30.9-13.2c47.7-24.1,83.5-52.9,107.1-86.3c21.8-32.8,25.7-62,11.7-87.4c-16.1-26.9-48.2-41.4-96.3-43.5     c-49.7-1.1-102.9,10.4-159.6,34.8c-57.8,30.3-101.5,65.6-131,106c-27.6,39.5-33.6,73.8-18.2,102.9"/></g></g></g></g><g id="SvgjsG1091" featurekey="nameLeftFeature-0" transform="matrix(1.1817227358357727,0,0,1.1817227358357727,120.62892291084303,17.49621469794249)" fill="#252a34"><path d="M17.8 14.719999999999999 c0.04 -1.32 0 -2.4 0 -3.68 c0 -1.48 -2.68 -1.32 -3.64 -1.28 c-4.28 0.28 -8.36 3 -10.32 6.72 c-0.56 1.08 -0.96 2.2 -1.24 3.36 c-0.68 2.72 -0.72 5.6 -0.4 8.36 c0.28 2.6 0.96 5.2 2.56 7.28 c2.76 3.64 7.84 4.92 12.2 4.24 c0.2 -0.04 0.4 -0.08 0.56 -0.2 c0.12 -0.08 0.24 -0.24 0.24 -0.4 l0.12 -2.28 c0.04 -0.72 0 -0.68 0 -1.4 c0 -0.96 -2 -0.24 -3.24 -0.24 c-1.2 0 -2.48 -0.04 -3.56 -0.6 c-1.92 -1.08 -3 -3.24 -3.6 -5.28 c-0.68 -2.2 -0.84 -4.56 -0.44 -6.8 c0.48 -2.92 1.88 -6.28 4.96 -7.28 c1.76 -0.6 3.64 -0.4 5.4 -0.2 c0.24 0.04 0.4 -0.12 0.4 -0.32 z M21.88 13.920000000000002 c-0.04 2.48 0.2 20.6 0.16 21.92 c0 1.24 0 2.48 0.04 3.72 c0 0.2 0.12 0.4 0.32 0.4 c2.8 0.12 5.56 -0.12 8.36 -0.08 c0.92 0.04 1.84 0 2.72 0 c0.88 -0.04 0.96 -0.4 0.92 -1.12 c-0.04 -1.12 -0.04 -2.12 -0.04 -3.2 c-0.04 -0.56 -0.36 -0.76 -0.84 -0.76 c-1.64 0.04 -3.28 -0.04 -4.92 0.04 c-0.28 0.04 -0.56 0.04 -0.84 0.04 c-0.48 -0.04 -0.6 -0.16 -0.64 -0.68 l0 -0.6 c-0.12 -3.32 0.12 -6.76 0.12 -10.08 c-0.04 -2.8 0 -5.32 -0.04 -7.8 c0 -1.08 0 -2.16 -0.04 -3.2 c-0.04 -0.64 0 -1.32 -0.16 -1.96 c-0.08 -0.24 -0.2 -0.56 -0.48 -0.56 l-3.76 0 c-0.64 0 -0.84 0.44 -0.88 1.08 l0 2.84 z M43.92 29.68 c-0.12 -4.56 -0.08 -9.4 -0.04 -13.92 c0 -1.4 -0.08 -2.92 -0.08 -4.32 c0 -1.52 -0.6 -1.44 -1.4 -1.48 c-1.16 -0.04 -1.68 -0.04 -2.84 -0.04 c-0.76 -0.04 -1.08 0.16 -1.08 0.92 c0 3.92 -0.12 15 -0.08 16.6 s0.2 8.88 0.12 10.48 c-0.04 0.56 0 1.12 0.04 1.68 c0.04 0.2 0.16 0.4 0.48 0.4 c1.32 -0.08 2.56 -0.08 3.88 -0.12 c0.48 -0.04 0.88 -0.16 1.08 -0.68 c0.04 -0.28 -0.08 -7.6 -0.08 -9.52 z M48.04 15.239999999999998 c0.04 2.36 0.04 22.4 0.04 24.04 c0 0.6 0.08 0.72 0.68 0.72 c1.36 0 1.36 0.04 2.72 0 c0.28 0 0.76 0 1 -0.12 c0.28 -0.12 0.12 -9.56 0.12 -10.08 c0 -0.56 1.12 -0.44 1.44 -0.44 c6.68 0 8.52 -4.8 8.52 -8.88 c0 -3.68 -0.72 -10.48 -9.04 -10.48 c-1.44 0 -2.92 0.04 -4.32 0.04 c-0.32 0 -0.72 -0.04 -1 0.16 c-0.32 0.24 -0.2 3.8 -0.16 5.04 z M52.64 23.48 c0 -0.88 -0.04 -6.12 0 -7.72 c0 -0.24 -0.04 -0.52 0 -0.8 c0.12 -0.44 0.64 -0.44 1.04 -0.4 c2.32 0.16 3.64 2.2 3.84 4.36 c0.16 1.56 -0.04 3.88 -1.16 5.12 c-0.8 0.84 -1.84 1.36 -3.2 1.36 c-0.28 0 -0.56 -0.32 -0.56 -0.6 c0 -0.44 0 -0.88 0.04 -1.32 z M75.32000000000001 40.04 c0.6 0 2.8 0.04 3.24 -0.04 c0.28 -0.08 0.44 -0.8 0.52 -1.04 c0.24 -0.76 0.4 -1.56 0.6 -2.32 c0.44 -2 4.88 -18.8 6.44 -25.08 c0.08 -0.28 0.16 -0.6 0.08 -0.88 c-0.12 -0.6 -0.48 -0.68 -0.96 -0.68 c-0.92 0.04 -1.84 0 -2.76 0 c-1.04 0 -1.44 0.12 -1.76 1.28 c-1.56 5.36 -2.6 11.76 -4.04 17.2 l-0.24 0.64 c0 0.04 -0.16 0 -0.16 0 c-0.08 -0.2 -0.2 -0.36 -0.24 -0.56 c-1.44 -5.72 -3.8 -17.04 -4.2 -18.12 c-0.24 -0.64 -0.84 -0.44 -1.4 -0.44 c-1.12 0 -2.16 0.04 -3.24 0.04 c-0.4 0.04 -0.68 0.2 -0.64 0.6 c0 0.32 0.44 2.08 0.52 2.56 l0.44 1.68 c0.28 1.28 0.68 2.88 0.96 4.12 c1.52 6.36 3.16 12.72 4.96 19 c0.16 0.56 0.28 1.52 0.68 1.84 c0.32 0.28 0.84 0.16 1.2 0.2 z M95.76 29.68 c-0.12 -4.56 -0.08 -9.4 -0.04 -13.92 c0 -1.4 -0.08 -2.92 -0.08 -4.32 c0 -1.52 -0.6 -1.44 -1.4 -1.48 c-1.16 -0.04 -1.68 -0.04 -2.84 -0.04 c-0.76 -0.04 -1.08 0.16 -1.08 0.92 c0 3.92 -0.12 15 -0.08 16.6 s0.2 8.88 0.12 10.48 c-0.04 0.56 0 1.12 0.04 1.68 c0.04 0.2 0.16 0.4 0.48 0.4 c1.32 -0.08 2.56 -0.08 3.88 -0.12 c0.48 -0.04 0.88 -0.16 1.08 -0.68 c0.04 -0.28 -0.08 -7.6 -0.08 -9.52 z M108 9.8 c-0.76 0.04 -1.52 0.16 -2.28 0.4 c-1.64 0.56 -3.12 1.68 -4.12 3.12 c-0.88 1.32 -1.24 2.88 -1.36 4.44 c-0.08 1.2 0.04 2.44 0.6 3.52 c0.6 1.16 1.64 2.16 2.52 3.12 c0.8 0.84 1.6 1.68 2.48 2.44 c0.8 0.76 1.72 1.36 2.52 2.16 c1.16 1.16 1.6 3.8 0.76 5.24 c-1 1.6 -3.36 1.84 -4.92 1.32 c-0.8 -0.28 -1.52 -0.88 -2.2 -1.36 c-0.4 -0.28 -0.88 -0.4 -1.16 0.08 c-0.16 0.24 -0.24 0.52 -0.32 0.76 c-0.28 1 -0.64 1.92 -0.68 3 c-0.04 1.24 2.32 1.6 3.2 1.8 c3.92 0.92 8.64 0.2 10.68 -3.68 c0.4 -0.8 0.68 -1.64 0.84 -2.52 c0.04 -0.32 0.08 -0.6 0.08 -0.92 c0.16 -2.56 -0.88 -4.72 -2.44 -6.64 c-1.68 -2.08 -3.8 -3.52 -5.76 -5.32 c-1.2 -1.12 -1.64 -2.88 -1.28 -4.48 c0.36 -1.72 2.32 -2.16 3.8 -1.72 c0.44 0.12 0.8 0.32 1.2 0.56 c0.24 0.12 0.48 0.28 0.8 0.28 c0.56 0.04 0.64 -0.4 0.76 -0.84 c0.28 -1 0.76 -1.8 0.96 -2.76 c0.2 -1.08 -0.68 -1.28 -1.56 -1.56 c-1.04 -0.28 -2.04 -0.48 -3.12 -0.44 z M123.72 35.64 c0.04 1.24 0.04 2.48 0.08 3.72 c0 0.56 0.04 0.64 0.6 0.64 l3.6 0 c0.76 0 0.6 -1.28 0.56 -1.96 l0.12 -22.4 c0 -0.6 0.2 -0.8 1 -0.8 l3.52 0 c0.84 0 0.64 -1.44 0.64 -2.44 c0 -0.88 0.32 -2.4 -0.64 -2.4 c-0.68 0 -7.2 0 -9.88 0.04 c-1.32 0 -2.4 -0.04 -3.72 -0.04 c-1 0 -0.96 0.8 -0.96 2.56 c0 1.12 -0.04 2.24 0.92 2.24 c0.56 0 2.84 0 3.48 0.04 c0.4 0 0.68 0.12 0.76 0.56 c0 0.12 0.04 0.24 0.04 0.36 c0 2.88 -0.2 16.28 -0.12 19.88 z"/></g><g id="SvgjsG1092" featurekey="inlineSymbolFeature-0" transform="matrix(0.45,0,0,0.45,279.5,24.5)" fill="#252a34"><path xmlns="http://www.w3.org/2000/svg" d="M50,10L10,90h80L50,10z M50,24.909L72.546,70H42.36l3.333-6.667h16.064L50,39.814L31.575,76.667h44.304l3.333,6.666H20.788  L50,24.909z"/></g><g id="SvgjsG1093" featurekey="nameRightFeature-0" transform="matrix(1,0,0,1,325,47)" fill="#252a34"><path d=""/></g></svg>